<?xml version="1.0" encoding="UTF-8"?>
<svg width="2000px" height="2000px" viewBox="0 0 2000 2000" version="1.1" xmlns="http://www.w3.org/2000/svg" xmlns:xlink="http://www.w3.org/1999/xlink">
    <title>qq-music-logo</title>
    <defs>
        <linearGradient x1="50%" y1="100%" x2="50%" y2="0%" id="linearGradient-1">
            <stop stop-color="#FBBE0A" offset="0%"></stop>
            <stop stop-color="#FEDA24" offset="100%"></stop>
        </linearGradient>
    </defs>
    <g id="other" stroke="none" stroke-width="1" fill="none" fill-rule="evenodd">
        <g id="qq-music-logo">
            <circle id="椭圆形" fill="url(#linearGradient-1)" fill-rule="nonzero" cx="1006.23077" cy="1000.19584" r="398.769231"></circle>
            <path d="M1066.97944,1034.13365 C1056.96779,1020.04946 1047.4652,1006.81372 1037.96262,993.74766 C1001.47948,943.180327 964.826645,892.612995 928.173813,842.215352 C904.926416,810.144124 881.848707,778.072897 858.261931,746.341047 C851.134992,736.838462 850.286547,726.826808 853.510638,715.96671 C860.128511,693.398069 875.909591,677.786678 894.575385,664.890311 C928.682881,641.303535 967.202291,629.255614 1007.58828,622.128674 C1042.71391,616.019869 1077.50016,608.553552 1108.21388,589.209002 C1116.52864,583.948642 1123.48589,576.821702 1131.1219,570.543208 C1133.15817,568.846317 1135.02475,566.979738 1138.92759,563.585957 C1141.47293,575.973257 1144.01827,586.324288 1145.71516,596.675319 C1150.80583,627.219345 1148.93925,656.914926 1135.19444,685.083306 C1116.52864,723.09365 1085.98462,746.850115 1045.938,759.067725 C1021.50278,766.873421 996.219116,768.74 970.596072,768.570311 C968.729493,768.570311 966.862913,769.079378 963.638822,769.418756 C969.917316,780.448543 975.517054,790.799574 981.625859,800.811227 C1006.23077,841.027529 1030.83568,881.24383 1055.2709,921.62982 L1135.7035,1055.0054 C1142.66075,1066.54426 1149.95738,1078.08311 1156.74494,1089.79165 C1172.52602,1116.9419 1184.06488,1145.27997 1181.85892,1177.86026 C1179.65296,1209.7618 1168.11411,1237.5908 1148.26049,1262.02602 C1115.84989,1301.90295 1073.767,1324.98065 1023.53905,1333.97417 C976.19581,1342.28894 931.058527,1337.02858 889.145336,1313.10242 C841.971784,1286.29155 811.767136,1237.5908 818.894075,1179.55715 C823.475679,1141.37712 842.480851,1109.81496 870.479542,1083.85254 C900.344812,1056.36291 935.80982,1039.5637 975.347365,1031.92769 C1004.53388,1026.15827 1033.72039,1026.49764 1062.56753,1034.30334 C1063.41597,1034.47303 1064.43411,1034.13365 1066.97944,1034.13365 Z" id="路径" fill="#0DAF52" fill-rule="nonzero"></path>
            <rect id="矩形" x="0" y="0" width="2000" height="2000"></rect>
        </g>
    </g>
</svg>