<?xml version="1.0" standalone="no"?><!DOCTYPE svg PUBLIC "-//W3C//DTD SVG 1.1//EN" "http://www.w3.org/Graphics/SVG/1.1/DTD/svg11.dtd" ><svg xmlns="http://www.w3.org/2000/svg"><metadata></metadata><defs><font id="fonteditor" horiz-adv-x="1074"><font-face font-family="\s+TªOS" font-weight="400" font-stretch="normal" units-per-em="1024" panose-1="4 15 7 0 0 0 0 0 0 0" ascent="917" descent="-205" x-height="0" bbox="0 -153 1075 1006" underline-thickness="50" underline-position="-110" unicode-range="U+0021-2026" /><missing-glyph horiz-adv-x="374"  /><glyph glyph-name="exclam" unicode="!" d="M466 735 Q466 698 456 649 L368 240 L257 254 L323 723 Q336 812 400 812 Q466 812 466 735 ZM252 175 Q261 175 285 143 Q285 99 240 99 Q207 108 207 143 Q216 175 252 175 ZM128 119 L154 119 Q164 119 180 92 Q180 57 154 47 L128 47 Q102 57 102 92 Q102 102 128 119 ZM344 139 L378 139 Q385 139 396 120 L396 87 Q396 79 378 68 L351 68 Q341 68 325 94 L325 120 Q325 129 344 139 ZM248 56 Q356 38 356 -28 L356 -53 Q356 -104 324 -118 L299 -118 Q256 -80 234 -80 Q190 -86 163 -86 Q144 -53 144 -41 Q144 35 248 56 ZM427 51 Q466 37 466 6 Q457 -26 421 -26 Q391 -13 388 0 L388 6 Q388 51 427 51 Z" /><glyph glyph-name="quotedbl" unicode="&quot;" d="M402 774 Q400 696 345 696 Q302 696 302 768 Q302 823 305 868 Q310 934 358 934 Q402 934 402 860 L402 774 ZM266 774 Q264 696 208 696 Q164 696 164 768 Q164 823 167 868 Q172 934 223 934 Q266 934 266 860 L266 774 Z" /><glyph glyph-name="numbersign" unicode="#" d="M998 563 Q998 539 980 522 Q961 504 933 504 L802 504 L768 310 L895 310 Q925 310 943 291 Q961 271 961 247 Q961 223 943 206 Q924 188 895 188 L745 188 L712 -1 L609 -1 L643 188 L364 188 L331 -1 L227 -1 L263 188 L120 188 L120 310 L285 310 L319 504 L158 504 L158 626 L343 626 L368 760 Q376 810 426 810 Q465 810 465 754 Q465 750 463 738 L442 626 L724 626 L749 760 Q757 810 801 810 Q847 810 847 754 Q847 750 844 738 L823 626 L933 626 Q963 626 981 607 Q998 587 998 563 ZM701 504 L421 504 L388 310 L666 310 L701 504 Z" /><glyph glyph-name="dollar" unicode="$" d="M825 233 Q825 130 736 73 Q659 22 526 15 L526 -74 L419 -74 L419 24 Q224 54 84 177 Q104 210 145 276 Q285 178 419 145 L419 373 Q275 398 213 433 Q122 484 122 582 Q122 687 209 749 Q285 803 419 817 L419 863 Q419 888 435 902 Q451 916 473 916 Q494 916 510 902 Q526 888 526 863 L526 816 Q817 790 817 680 Q817 658 798 641 Q778 625 750 625 Q745 625 695 649 Q630 680 526 695 L526 480 Q667 453 738 403 Q825 341 825 233 ZM419 495 L419 695 Q343 681 292 656 Q243 628 243 594 Q243 527 419 495 ZM702 236 Q702 319 526 356 L526 137 Q601 142 648 166 Q702 193 702 236 Z" /><glyph glyph-name="percent" unicode="%" d="M967 748 Q967 720 947 703 L191 -1 L104 86 L860 791 Q881 810 904 810 Q929 810 947 791 Q967 772 967 748 ZM275 925 Q287 925 316 884 Q316 827 259 827 Q218 838 218 884 Q230 925 275 925 ZM119 852 L151 852 Q164 852 183 818 Q183 775 151 762 L119 762 Q85 775 85 818 Q85 833 119 852 ZM392 878 L434 878 Q445 878 458 853 L458 813 Q458 801 434 788 L401 788 Q388 788 368 821 L368 853 Q368 865 392 878 ZM269 772 Q408 750 408 666 L408 634 Q408 569 367 552 L335 552 Q280 600 253 600 Q197 592 162 592 Q138 634 138 650 Q138 745 269 772 ZM499 767 Q547 748 547 710 Q535 669 490 669 Q452 684 449 701 L449 710 Q449 767 499 767 ZM779 322 Q792 322 821 281 Q821 224 764 224 Q723 234 723 281 Q734 322 779 322 ZM623 249 L655 249 Q668 249 688 215 Q688 172 655 159 L623 159 Q590 172 590 215 Q590 229 623 249 ZM897 275 L938 275 Q949 275 963 250 L963 210 Q963 198 938 185 L905 185 Q893 185 872 218 L872 250 Q872 262 897 275 ZM773 170 Q912 147 912 62 L912 31 Q912 -34 871 -51 L839 -51 Q784 -3 757 -3 Q701 -11 667 -11 Q643 31 643 47 Q643 142 773 170 ZM1002 164 Q1052 144 1052 106 Q1039 66 994 66 Q956 82 953 98 L953 106 Q953 164 1002 164 Z" /><glyph glyph-name="ampersand" unicode="&amp;" d="M856 63 L778 -20 Q738 4 634 79 Q507 -3 357 -3 Q240 -3 162 41 Q67 96 67 206 Q67 329 221 433 Q148 544 148 623 Q148 709 230 760 Q303 808 410 808 Q485 808 557 763 Q642 708 642 627 Q642 562 572 509 Q524 471 392 408 L626 223 Q678 288 706 338 Q724 369 759 369 Q781 369 804 353 Q823 339 823 315 Q823 302 816 289 Q775 218 722 156 Q815 88 856 63 ZM517 627 Q517 663 482 683 Q452 700 410 700 Q361 700 323 684 Q271 664 271 623 Q271 574 326 490 Q383 518 440 546 Q517 591 517 627 ZM536 147 L289 349 Q189 278 189 206 Q189 104 357 104 Q442 104 536 147 Z" /><glyph glyph-name="quotesingle" unicode="&#39;" d="M364 855 Q364 817 319 781 L232 711 L176 761 L253 862 Q283 900 311 900 Q332 900 348 887 Q364 874 364 855 Z" /><glyph glyph-name="parenleft" unicode="(" d="M843 -94 Q843 -111 827 -124 Q812 -136 791 -136 Q749 -136 708 -101 Q618 -26 575 125 Q540 246 540 387 Q540 530 575 657 Q620 816 708 890 Q749 925 791 925 Q812 925 827 913 Q843 900 843 883 Q843 861 826 841 Q810 826 795 810 Q663 665 663 390 Q663 262 687 173 Q719 63 795 -22 Q810 -37 826 -52 Q843 -72 843 -94 ZM349 252 Q357 252 378 224 Q378 184 339 184 Q310 193 310 224 Q318 252 349 252 ZM241 202 L263 202 Q272 202 286 179 Q286 148 263 139 L241 139 Q218 148 218 179 Q218 188 241 202 ZM431 220 L460 220 Q467 220 476 203 L476 174 Q476 167 460 158 L436 158 Q428 158 414 180 L414 203 Q414 211 431 220 ZM346 147 Q441 131 441 73 L441 50 Q441 6 413 -6 L390 -6 Q352 28 334 28 Q295 22 271 22 Q255 50 255 62 Q255 128 346 147 ZM504 142 Q538 129 538 103 Q529 76 498 76 Q472 86 470 97 L470 103 Q470 142 504 142 ZM857 618 Q865 618 886 591 Q886 552 847 552 Q817 559 817 591 Q825 618 857 618 ZM749 569 L771 569 Q779 569 794 546 Q794 515 771 507 L749 507 Q726 515 726 546 Q726 555 749 569 ZM939 587 L967 587 Q975 587 984 569 L984 542 Q984 534 967 524 L944 524 Q935 524 922 548 L922 569 Q922 578 939 587 ZM853 514 Q949 498 949 440 L949 418 Q949 374 921 361 L898 361 Q860 394 842 394 Q803 389 779 389 Q763 418 763 429 Q763 495 853 514 ZM1012 510 Q1046 497 1046 470 Q1037 442 1006 442 Q980 453 977 465 L977 470 Q977 510 1012 510 Z" /><glyph glyph-name="parenright" unicode=")" d="M259 -89 Q259 -67 276 -47 Q292 -32 307 -16 Q383 68 416 178 Q440 267 440 395 Q440 670 307 815 Q292 831 276 846 Q259 866 259 888 Q259 905 275 918 Q291 930 312 930 Q354 930 395 895 Q483 821 527 662 Q562 535 562 392 Q562 251 527 130 Q484 -22 395 -96 Q354 -131 312 -131 Q291 -131 275 -119 Q259 -106 259 -89 ZM753 257 Q784 257 793 229 Q793 197 764 189 Q724 189 724 229 Q744 257 753 257 ZM861 207 Q885 193 885 184 Q885 154 861 144 L840 144 Q816 154 816 184 Q830 207 840 207 L861 207 ZM672 225 Q689 216 689 208 L689 185 Q675 163 666 163 L643 163 Q627 171 627 179 L627 208 Q635 225 643 225 L672 225 ZM757 152 Q847 133 847 67 Q847 55 830 27 Q807 27 768 33 Q750 33 712 -1 L690 -1 Q660 11 660 55 L660 78 Q660 136 757 152 ZM598 147 Q633 147 633 108 L633 102 Q631 91 604 81 Q572 81 565 108 Q565 134 598 147 ZM246 624 Q276 624 285 596 Q285 564 256 556 Q217 556 217 596 Q238 624 246 624 ZM354 574 Q377 560 377 551 Q377 520 354 512 L332 512 Q309 520 309 551 Q323 574 332 574 L354 574 ZM164 592 Q181 583 181 574 L181 553 Q167 529 159 529 L135 529 Q119 539 119 547 L119 574 Q128 592 135 592 L164 592 ZM250 519 Q340 500 340 434 Q340 423 324 394 Q300 394 261 399 Q243 399 205 366 L182 366 Q154 379 154 423 L154 445 Q154 503 250 519 ZM91 514 Q125 514 125 475 L125 469 Q123 458 97 447 Q66 447 57 475 Q57 502 91 514 Z" /><glyph glyph-name="asterisk" unicode="*" d="M699 526 Q699 499 665 471 Q640 457 496 376 L648 218 L561 126 L392 284 L225 126 L137 218 L303 383 L142 468 Q91 496 91 530 Q91 597 159 597 Q195 597 340 518 Q331 626 331 635 Q331 688 340 712 Q355 741 398 741 Q460 741 465 665 L471 515 L568 572 Q608 596 631 596 Q699 596 699 526 Z" /><glyph glyph-name="plus" unicode="+" d="M826 415 Q826 349 738 349 Q715 349 521 344 Q532 103 531 34 L410 34 Q411 103 400 339 Q152 331 85 323 L85 441 Q178 452 393 466 L380 660 Q377 696 377 707 Q377 738 394 755 Q411 774 436 774 Q494 774 499 719 Q505 652 515 472 Q620 475 700 475 Q757 475 780 469 Q826 456 826 415 Z" /><glyph glyph-name="comma" unicode="," d="M382 33 Q382 -37 351 -103 L267 -91 L300 22 Q275 -1 225 -1 Q191 -1 174 22 Q155 41 155 74 Q155 114 184 142 Q215 167 259 167 Q382 167 382 33 Z" /><glyph glyph-name="hyphen" unicode="-" d="M907 424 Q907 396 888 378 Q863 355 819 355 Q709 355 474 344 Q243 335 166 328 L166 451 Q440 486 781 486 Q838 486 861 480 Q907 466 907 424 Z" /><glyph glyph-name="period" unicode="." d="M315 287 Q327 287 353 250 Q353 198 301 198 Q263 208 263 250 Q274 287 315 287 ZM173 221 L202 221 Q214 221 232 190 Q232 151 202 138 L173 138 Q142 151 142 190 Q142 203 173 221 ZM423 245 L461 245 Q470 245 482 222 L482 185 Q482 174 461 163 L430 163 Q419 163 399 193 L399 222 Q399 233 423 245 ZM310 148 Q437 128 437 51 L437 22 Q437 -37 398 -53 L370 -53 Q319 -8 295 -8 Q245 -16 213 -16 Q190 22 190 37 Q190 124 310 148 ZM519 143 Q563 126 563 91 Q553 54 511 54 Q477 69 474 84 L474 91 Q474 143 519 143 Z" /><glyph glyph-name="slash" unicode="/" d="M575 743 Q575 730 544 675 L167 -6 L79 81 L469 786 Q478 805 512 805 Q536 805 555 786 Q575 767 575 743 Z" /><glyph glyph-name="zero" unicode="0" d="M926 449 Q926 254 803 126 Q678 -1 484 -1 Q308 -1 188 92 Q58 195 58 361 Q58 571 185 691 Q312 810 524 810 Q681 810 802 707 Q926 601 926 449 ZM803 439 Q803 567 694 632 Q609 687 488 687 Q348 687 265 598 Q182 508 182 365 Q182 237 293 172 Q376 123 496 123 Q635 123 720 215 Q803 304 803 439 ZM102 946 L158 941 Q293 862 385 780 Q227 588 103 599 Q70 653 46 892 Q76 948 102 946 ZM899 931 Q927 933 956 877 Q932 638 899 584 Q774 572 617 765 Q709 847 845 926 L899 931 ZM244 388 Q258 293 340 293 L366 293 Q461 293 461 401 Q431 499 352 499 Q244 483 244 388 ZM521 401 Q521 339 593 293 L643 293 Q739 293 739 390 Q725 499 630 499 Q552 499 521 401 ZM388 385 Q388 371 377.5 363 Q367 355 352 355 Q340 355 330.5 365 Q321 375 321 387 Q321 399 332.5 410 Q344 421 358 421 Q371 421 379.5 409 Q388 397 388 385 ZM663 390 Q663 376 652 368 Q641 360 627 360 Q614 360 604.5 370 Q595 380 595 392 Q595 404 606.5 415 Q618 426 632 426 Q644 426 653.5 414.5 Q663 403 663 390 Z" /><glyph glyph-name="one" unicode="1" d="M311 25 L178 25 Q173 238 159 741 Q157 825 224 825 Q288 825 290 742 L311 25 Z" /><glyph glyph-name="two" unicode="2" d="M816 152 Q816 123 796 108 Q715 44 618 20 Q540 -1 417 -1 Q325 -1 260 25 Q171 62 171 139 Q171 225 297 307 Q415 370 532 432 Q659 501 659 557 Q659 618 590 656 Q530 688 468 688 Q341 688 263 651 Q184 614 140 532 L31 584 Q85 698 197 756 Q299 810 436 810 Q584 810 676 753 Q782 687 782 556 Q782 460 659 372 Q600 328 435 246 Q314 186 314 159 Q314 123 443 123 Q559 123 668 170 Q676 173 709 196 Q735 213 754 213 Q781 213 799 194 Q816 174 816 152 ZM142 1000 L197 988 Q322 894 402 801 Q223 630 101 655 Q75 713 80 953 Q116 1006 142 1000 ZM868 898 Q895 894 910 833 Q828 605 783 561 Q660 581 555 806 Q664 863 814 907 L868 898 Z" /><glyph glyph-name="three" unicode="3" d="M771 266 Q771 144 691 70 Q612 -2 480 -2 Q385 -2 385 57 Q385 81 399 101 Q415 120 434 120 Q525 120 581 148 Q647 181 647 249 Q647 352 479 352 Q426 352 326 329 Q225 306 221 306 Q196 306 176 325 Q155 341 155 359 Q155 414 195 424 Q240 437 344 468 Q549 538 549 612 Q549 688 404 688 Q280 688 98 606 L41 709 Q113 753 215 782 Q316 810 399 810 Q674 810 674 612 Q674 563 647 526 Q622 490 551 442 Q662 433 719 382 Q771 336 771 266 Z" /><glyph glyph-name="four" unicode="4" d="M918 236 Q821 179 687 147 Q687 164 684 9 L564 9 Q563 116 563 128 Q508 119 443 119 Q48 119 48 352 Q48 475 132 606 Q210 728 323 800 Q337 810 346 810 Q373 810 391 793 Q411 777 411 753 Q411 716 402 711 Q328 664 257 569 Q169 452 169 356 Q169 295 261 265 Q329 243 411 243 Q488 243 569 257 Q589 507 633 757 Q642 810 693 810 Q746 810 746 757 Q746 746 719 548 Q693 351 693 275 Q786 298 877 348 L918 236 Z" /><glyph glyph-name="five" unicode="5" d="M883 253 Q883 -2 487 -2 L469 116 Q587 120 648 138 Q762 171 762 253 Q762 322 670 360 Q598 392 510 392 Q385 392 283 342 Q250 328 217 311 Q180 296 148 296 Q87 296 70 391 Q61 434 61 527 Q61 587 79 646 Q88 681 122 755 Q146 810 190 810 Q215 810 250 770 Q301 770 390 774 Q478 778 520 778 Q573 778 672 774 Q771 770 823 770 Q847 770 865 751 Q883 733 883 711 Q883 684 863 665 Q846 647 817 647 Q788 647 698 651 Q606 655 552 655 Q519 655 384 651 Q268 647 209 649 Q185 572 185 522 Q185 495 204 430 Q334 515 508 515 Q666 515 765 457 Q883 388 883 253 ZM262 246 Q299 246 309 212 Q309 174 274 165 Q227 165 227 212 Q252 246 262 246 ZM391 185 Q419 169 419 158 Q419 122 391 111 L365 111 Q337 122 337 158 Q354 185 365 185 L391 185 ZM165 207 Q185 197 185 186 L185 160 Q168 132 158 132 L130 132 Q111 143 111 153 L111 186 Q122 207 130 207 L165 207 ZM267 120 Q375 97 375 18 Q375 5 355 -30 Q327 -30 281 -23 Q258 -23 213 -63 L186 -63 Q152 -48 152 5 L152 32 Q152 101 267 120 ZM78 115 Q119 115 119 68 L119 61 Q116 47 84 35 Q47 35 37 68 Q37 99 78 115 Z" /><glyph glyph-name="six" unicode="6" d="M883 315 Q883 159 767 73 Q665 -4 498 -4 Q301 -4 184 60 Q36 141 36 311 Q36 441 98 559 Q161 678 270 753 Q349 808 382 808 Q408 808 425 788 Q442 770 442 743 Q442 716 424 706 Q352 660 285 598 Q210 526 185 469 Q323 556 531 556 Q682 556 773 506 Q883 443 883 315 ZM765 313 Q765 377 679 411 Q613 433 535 433 Q443 433 345 408 Q221 374 163 311 Q163 119 512 119 Q602 119 673 160 Q765 212 765 313 ZM719 946 Q729 946 752 915 Q752 871 708 871 Q676 879 676 915 Q684 946 719 946 ZM598 890 L623 890 Q633 890 648 864 Q648 830 623 820 L598 820 Q571 830 571 864 Q571 874 598 890 ZM811 910 L844 910 Q851 910 862 891 L862 859 Q862 851 844 841 L817 841 Q807 841 792 866 L792 891 Q792 900 811 910 ZM715 828 Q823 811 823 745 L823 721 Q823 671 791 656 L766 656 Q723 694 701 694 Q658 688 632 688 Q613 721 613 733 Q613 807 715 828 ZM893 824 Q931 809 931 779 Q922 748 887 748 Q857 760 854 773 L854 779 Q854 824 893 824 Z" /><glyph glyph-name="seven" unicode="7" d="M889 585 Q889 553 871 511 Q834 413 728 271 Q641 159 540 53 Q488 -1 467 -1 Q435 -1 415 17 Q394 34 394 61 Q394 83 419 108 Q614 301 734 500 Q769 555 769 590 Q769 630 624 663 Q507 688 433 688 Q279 688 51 627 L30 746 Q101 773 222 791 Q344 810 435 810 Q606 810 717 775 Q889 719 889 585 Z" /><glyph glyph-name="eight" unicode="8" d="M904 243 Q904 115 776 49 Q671 -6 517 -6 Q353 -6 236 36 Q65 95 65 227 Q65 334 173 412 Q86 483 86 572 Q86 698 220 759 Q324 805 482 805 Q639 805 744 762 Q884 703 884 580 Q884 499 800 411 Q904 338 904 243 ZM761 578 Q761 624 650 655 Q561 682 495 682 Q403 682 323 658 Q210 629 210 567 Q210 511 324 471 Q415 439 489 439 Q585 439 658 468 Q761 504 761 578 ZM781 243 Q781 267 763 290 Q744 310 696 344 Q607 321 499 321 Q380 321 281 351 Q184 311 184 246 Q184 187 318 147 Q423 117 503 117 Q586 117 672 145 Q781 182 781 243 ZM94 941 L150 936 Q285 857 377 774 Q219 583 95 594 Q61 647 38 887 Q68 943 94 941 ZM891 926 Q919 928 948 871 Q924 632 891 578 Q766 567 609 759 Q700 842 837 921 L891 926 Z" /><glyph glyph-name="nine" unicode="9" d="M915 628 Q915 600 894 581 Q874 563 852 563 Q825 563 801 591 Q744 657 656 681 Q600 695 495 695 Q387 695 283 636 Q165 570 165 483 Q165 401 263 361 Q335 334 429 334 Q495 334 575 354 Q693 386 777 452 Q799 492 843 492 Q858 492 877 473 Q893 455 893 430 Q893 400 865 237 Q863 223 826 18 L701 18 Q720 132 755 302 Q655 249 570 227 Q502 211 408 211 Q255 211 157 275 Q43 349 43 487 Q43 642 206 736 Q345 817 522 817 Q730 817 840 725 Q915 662 915 628 ZM89 954 L144 949 Q280 870 372 787 Q214 596 90 606 Q56 660 33 899 Q62 956 89 954 ZM886 972 Q913 974 943 918 Q919 679 886 625 Q761 613 604 806 Q695 888 831 967 L886 972 Z" /><glyph glyph-name="colon" unicode=":" d="M378 496 Q378 391 264 391 Q220 391 187 421 Q158 452 158 496 Q158 545 185 577 Q215 606 264 606 Q316 606 348 578 Q378 549 378 496 ZM378 105 Q378 -1 264 -1 Q220 -1 187 29 Q158 61 158 105 Q158 153 185 184 Q215 214 264 214 Q316 214 348 187 Q378 158 378 105 Z" /><glyph glyph-name="semicolon" unicode=";" d="M379 496 Q379 391 264 391 Q220 391 188 421 Q159 452 159 496 Q159 545 186 577 Q216 606 264 606 Q317 606 348 578 Q379 549 379 496 ZM382 80 Q382 9 351 -57 L267 -44 L300 68 Q274 45 225 45 Q191 45 174 67 Q155 88 155 121 Q155 162 186 189 Q217 214 262 214 Q382 214 382 80 Z" /><glyph glyph-name="less" unicode="&lt;" d="M817 113 Q817 48 739 48 Q712 48 667 76 Q493 179 326 304 Q256 350 256 406 Q256 462 326 509 Q377 547 431 584 Q551 669 667 737 Q712 764 739 764 Q817 764 817 699 Q817 673 787 656 Q739 629 477 459 Q436 432 436 406 Q436 382 476 356 Q575 288 787 156 Q817 139 817 113 Z" /><glyph glyph-name="equal" unicode="=" d="M907 539 Q907 511 888 493 Q863 471 819 471 Q709 471 474 460 Q243 450 166 442 L166 566 Q440 602 781 602 Q838 602 861 595 Q907 581 907 539 ZM907 308 Q907 280 888 262 Q863 239 819 239 Q709 239 474 228 Q243 218 166 211 L166 335 Q440 371 781 371 Q838 371 861 362 Q907 350 907 308 Z" /><glyph glyph-name="greater" unicode="&gt;" d="M817 406 Q817 350 748 304 Q700 267 647 232 Q524 145 406 76 Q361 48 334 48 Q256 48 256 113 Q256 139 287 156 Q392 215 598 356 Q638 382 638 406 Q638 432 597 459 Q497 526 287 656 Q256 673 256 699 Q256 764 334 764 Q361 764 406 737 Q522 669 643 584 Q696 547 748 509 Q817 462 817 406 Z" /><glyph glyph-name="question" unicode="?" d="M522 572 Q522 461 487 390 Q449 306 348 241 Q332 229 313 229 Q290 229 271 249 Q254 267 254 291 Q254 322 282 340 Q354 388 380 442 Q402 488 402 572 Q402 618 359 655 Q317 692 264 692 Q205 692 165 653 Q131 620 131 577 Q131 500 154 456 Q162 440 162 425 Q162 400 142 384 Q124 369 99 369 Q67 369 48 402 Q12 475 12 577 Q12 669 81 738 Q154 810 264 810 Q360 810 438 745 Q522 673 522 572 ZM266 181 Q274 181 295 152 Q295 111 254 111 Q224 119 224 152 Q233 181 266 181 ZM153 129 L176 129 Q185 129 200 105 Q200 74 176 65 L153 65 Q129 74 129 105 Q129 115 153 129 ZM350 147 L380 147 Q388 147 397 129 L397 100 Q397 92 380 83 L356 83 Q347 83 333 106 L333 129 Q333 138 350 147 ZM261 72 Q361 55 361 -5 L361 -29 Q361 -75 332 -87 L308 -87 Q268 -52 249 -52 Q209 -58 184 -58 Q167 -29 167 -16 Q167 52 261 72 ZM426 68 Q461 53 461 27 Q453 -3 420 -3 Q393 8 390 20 L390 27 Q390 68 426 68 Z" /><glyph glyph-name="at" unicode="@" d="M1006 122 Q1006 97 978 80 Q833 -1 557 -1 Q348 -1 212 104 Q71 213 71 390 Q71 551 206 675 Q350 810 564 810 Q752 810 869 729 Q1004 638 1004 468 Q1004 378 951 294 Q892 198 802 198 Q765 198 737 212 Q717 225 687 260 Q586 190 498 190 Q394 190 340 243 Q286 295 286 384 Q286 489 359 563 Q434 636 555 636 Q752 636 752 559 Q752 508 686 508 Q670 508 630 520 Q591 532 555 532 Q497 532 457 500 Q409 459 409 384 Q409 294 498 294 Q541 294 591 329 Q643 361 663 412 Q676 447 717 447 Q742 447 761 434 Q780 421 780 397 Q780 388 776 378 Q772 362 756 336 Q786 311 807 311 Q840 311 862 370 Q883 419 883 468 Q883 584 798 646 Q712 707 564 707 Q403 707 295 605 Q191 510 191 390 Q191 260 293 182 Q393 103 557 103 Q795 103 910 167 Q928 176 945 176 Q968 176 987 160 Q1006 143 1006 122 Z" /><glyph glyph-name="A" unicode="a" d="M914 11 L790 11 Q785 383 660 581 Q627 634 601 656 Q560 689 504 689 Q433 689 350 572 Q280 474 241 353 L471 316 Q527 307 527 246 Q527 227 510 210 Q492 194 469 194 Q424 194 204 236 Q180 156 154 11 L35 11 Q58 212 122 390 Q197 602 309 718 Q397 810 500 810 Q612 810 697 730 Q812 622 867 399 Q912 223 914 11 Z" /><glyph glyph-name="B" unicode="b" d="M859 238 Q859 125 763 59 Q676 0 554 0 Q362 0 258 61 L302 171 Q416 124 559 124 Q621 124 673 152 Q737 185 737 239 Q737 299 682 330 Q638 352 574 352 Q553 352 536 371 Q517 387 517 413 Q517 440 536 460 Q554 477 579 477 Q715 477 715 577 Q715 635 643 667 Q587 691 521 691 Q369 691 194 594 Q167 440 167 228 Q167 145 180 14 L54 14 Q44 88 44 247 Q44 542 109 768 Q123 812 172 812 Q194 812 204 802 Q216 791 236 746 Q353 812 512 812 Q649 812 736 757 Q838 692 838 569 Q838 486 771 413 Q859 338 859 238 ZM164 987 L209 972 Q306 876 365 786 Q191 659 89 695 Q73 748 104 954 Q141 995 164 987 ZM729 998 Q752 1006 788 965 Q820 758 804 706 Q702 670 528 797 Q588 886 684 982 L729 998 Z" /><glyph glyph-name="C" unicode="c" d="M834 152 Q834 125 795 95 Q672 -1 487 -1 Q305 -1 174 92 Q32 196 32 367 Q32 562 163 686 Q294 810 487 810 Q668 810 778 718 Q820 686 820 657 Q820 634 798 614 Q778 595 758 595 Q741 595 717 614 Q660 662 607 675 Q565 688 482 688 Q345 688 248 591 Q152 495 152 358 Q152 241 285 171 Q383 121 480 121 Q632 121 739 205 Q751 213 780 213 Q800 213 818 195 Q834 175 834 152 Z" /><glyph glyph-name="D" unicode="d" d="M889 400 Q889 198 773 97 Q664 -1 466 -1 Q365 -1 278 30 L303 147 Q409 122 511 122 Q625 122 693 193 Q765 268 765 406 Q765 546 690 618 Q618 689 485 689 Q439 689 324 657 Q212 626 174 606 Q166 504 166 402 Q166 275 186 12 L65 12 Q45 207 45 368 Q45 628 72 762 Q81 809 141 809 Q175 809 201 737 Q366 810 508 810 Q687 810 791 693 Q889 582 889 400 ZM145 985 L190 969 Q287 873 346 784 Q172 656 70 692 Q53 745 86 951 Q123 992 145 985 ZM776 975 Q800 980 831 935 Q840 726 817 676 Q712 651 554 798 Q623 880 730 964 L776 975 Z" /><glyph glyph-name="E" unicode="e" d="M871 93 Q775 32 658 14 Q587 1 432 1 Q226 1 142 67 Q48 137 48 326 Q48 483 113 676 L50 675 L50 797 Q106 797 234 800 Q354 803 418 803 Q479 803 606 800 Q733 797 795 797 Q815 797 833 779 Q848 762 848 740 Q848 673 788 673 Q753 673 666 677 Q578 683 540 683 Q512 683 230 677 L193 495 Q297 486 404 478 Q569 467 613 467 Q637 467 653 450 Q671 434 671 407 Q671 379 653 360 Q636 344 610 344 Q443 344 173 372 Q173 225 249 169 Q312 124 450 124 Q569 124 641 136 Q714 153 820 198 L871 93 Z" /><glyph glyph-name="F" unicode="f" d="M900 733 Q900 672 838 672 Q827 672 716 676 Q601 681 551 681 Q434 681 267 675 Q252 528 252 409 Q434 393 498 393 Q525 393 583 397 Q640 401 670 401 Q728 401 728 340 Q728 300 698 286 Q667 269 547 269 Q391 269 255 295 Q255 95 260 16 L140 14 Q129 185 129 418 Q129 535 142 673 Q136 673 31 671 L29 795 Q502 806 482 806 Q700 806 854 792 Q871 788 885 770 Q900 753 900 733 Z" /><glyph glyph-name="G" unicode="g" d="M858 657 Q858 635 840 618 Q821 602 791 602 Q780 602 765 612 Q657 677 650 679 Q603 699 514 699 Q364 699 265 611 Q160 519 160 370 Q160 256 249 189 Q328 131 438 131 Q505 131 563 160 Q612 182 620 182 Q643 182 663 165 Q682 147 682 122 Q682 61 584 31 Q514 8 436 8 Q270 8 157 103 Q39 206 39 365 Q39 561 172 693 Q305 820 496 820 Q599 820 667 801 Q731 781 818 725 Q858 700 858 657 ZM869 54 Q869 39 854 26 Q836 9 808 9 Q782 9 766 28 Q749 44 749 59 L749 225 Q749 282 724 304 Q695 331 623 331 Q539 331 403 302 L383 425 Q500 451 625 451 Q754 451 806 417 Q869 376 869 257 L869 54 ZM129 954 L176 948 Q293 878 371 805 Q231 640 124 652 Q95 699 79 907 Q105 956 129 954 ZM729 990 Q751 998 787 957 Q820 751 804 698 Q701 662 528 790 Q587 879 684 975 L729 990 Z" /><glyph glyph-name="H" unicode="h" d="M885 249 L884 11 L756 11 Q756 72 760 291 Q761 374 749 542 Q737 716 737 740 Q737 810 791 810 Q852 810 857 759 Q867 662 877 478 Q885 309 885 249 ZM683 388 Q683 362 664 343 Q644 326 621 326 Q585 326 480 329 Q375 333 352 333 Q304 333 169 321 L169 9 L47 9 L47 449 Q47 586 67 753 Q68 772 89 791 Q111 810 131 810 Q154 810 171 792 Q188 774 188 746 Q188 738 180 614 Q170 492 170 445 Q207 445 289 449 Q371 453 391 453 Q451 453 530 451 Q610 449 630 449 Q647 449 666 431 Q683 413 683 388 Z" /><glyph glyph-name="I" unicode="i" d="M753 76 Q753 58 738 42 Q725 27 707 24 Q609 9 404 9 Q123 9 26 35 L27 153 Q201 133 305 133 Q305 194 302 284 Q298 374 298 417 Q298 455 302 539 Q304 624 304 682 Q204 671 52 670 L49 790 Q168 800 324 800 Q534 800 672 781 Q729 774 729 719 Q729 662 663 662 Q624 662 555 668 Q473 678 428 691 Q418 302 429 137 Q497 129 583 137 Q676 146 693 146 Q722 146 738 123 Q753 103 753 76 Z" /><glyph glyph-name="J" unicode="j" d="M912 726 Q912 699 895 682 Q878 663 857 663 Q827 663 681 680 Q720 509 720 376 Q720 183 639 93 Q554 -1 365 -1 Q184 -1 32 159 Q61 198 108 252 Q236 120 370 120 Q505 120 556 193 Q596 249 596 380 Q596 555 551 675 Q408 675 373 673 Q247 667 33 652 L33 773 Q231 800 530 800 Q637 800 757 791 Q880 782 866 782 Q883 782 898 765 Q912 749 912 726 Z" /><glyph glyph-name="K" unicode="k" d="M804 68 Q804 35 786 17 Q767 -1 746 -1 Q732 -1 607 42 Q344 133 170 267 L187 11 L61 11 Q50 114 50 300 Q50 603 89 757 Q103 810 157 810 Q212 810 212 749 Q212 736 195 629 Q187 597 179 563 Q174 524 174 457 Q227 521 368 623 Q508 726 629 788 Q670 809 696 809 Q722 809 739 793 Q755 777 755 750 Q755 713 738 705 Q592 620 524 577 Q402 497 328 427 Q286 389 286 360 Q286 330 346 295 Q534 187 770 116 Q782 112 793 98 Q804 82 804 68 Z" /><glyph glyph-name="L" unicode="l" d="M838 101 Q656 -1 386 -1 Q39 -1 39 375 Q39 472 55 579 Q77 702 113 775 Q129 810 162 810 Q225 810 225 750 Q225 728 194 618 Q160 503 160 360 Q160 122 401 122 Q523 122 614 145 Q688 163 801 213 L838 101 ZM361 650 L373 650 Q413 622 447 587 L476 593 L547 593 Q632 627 674 627 L679 627 Q687 627 697 609 Q685 541 662 512 L668 482 L668 441 Q668 342 500 315 Q338 341 338 441 Q338 466 343 506 Q332 579 332 587 Q343 650 361 650 ZM367 449 Q375 396 420 396 L433 396 Q486 396 486 456 Q469 509 426 509 Q367 500 367 449 ZM519 456 Q519 421 558 396 L586 396 Q638 396 638 450 Q631 509 579 509 Q536 509 519 456 ZM720 344 L749 344 Q761 342 761 333 L761 321 Q656 321 656 257 Q691 205 691 181 L691 176 Q691 165 679 165 L662 165 Q567 240 482 240 L465 240 Q381 228 373 228 L361 246 L361 252 Q361 301 424 309 Q486 297 506 297 Q524 297 581 315 Q623 286 633 280 Q657 344 720 344 ZM445 446 Q445 438 439.5 434 Q434 430 426 430 Q420 430 414.5 435 Q409 440 409 447 Q409 455 415.5 460.5 Q422 466 429 466 Q436 466 440.5 460 Q445 454 445 446 ZM596 450 Q596 441 590.5 437 Q585 433 577 433 Q570 433 564.5 438 Q559 443 559 451 Q559 458 565.5 463.5 Q572 469 580 469 Q587 469 591.5 463 Q596 457 596 450 Z" /><glyph glyph-name="M" unicode="m" d="M851 421 Q851 276 829 36 L709 36 Q729 253 729 388 Q729 434 725 494 Q722 556 722 557 Q722 618 670 618 Q648 618 564 526 Q479 435 437 435 Q396 435 310 516 Q225 595 209 595 Q166 595 166 501 Q166 253 189 11 L71 11 Q37 208 45 538 Q52 810 156 810 Q185 810 298 705 Q305 696 433 567 Q527 665 565 698 Q665 788 718 788 Q808 788 837 644 Q851 573 851 421 Z" /><glyph glyph-name="N" unicode="n" d="M828 343 Q828 200 811 134 Q779 9 680 9 Q567 9 432 200 Q350 314 267 487 Q255 517 245 546 Q226 587 210 587 Q191 587 178 548 Q164 507 164 469 Q164 444 162 373 Q159 300 159 258 Q159 145 174 11 L51 11 Q34 150 34 332 Q34 478 56 595 Q96 788 185 788 Q258 788 333 653 Q369 578 462 395 Q579 175 647 175 Q669 175 685 234 Q699 294 699 374 Q699 464 667 600 Q637 731 637 746 Q637 810 681 810 Q710 810 726 802 Q739 795 752 767 Q781 699 805 560 Q828 429 828 343 Z" /><glyph glyph-name="O" unicode="o" d="M835 412 Q835 228 726 113 Q616 -2 440 -2 Q257 -2 144 111 Q32 224 32 406 Q32 584 145 697 Q259 810 433 810 Q608 810 721 697 Q835 584 835 412 ZM713 413 Q713 531 636 612 Q559 692 446 692 Q329 692 246 621 Q153 541 153 404 Q153 269 242 191 Q321 121 437 121 Q561 121 638 202 Q713 283 713 413 ZM105 941 L153 935 Q267 860 343 784 Q198 625 91 640 Q63 688 53 897 Q82 944 105 941 ZM792 912 Q815 913 841 864 Q819 656 790 610 Q682 601 546 768 Q626 840 743 907 L792 912 Z" /><glyph glyph-name="P" unicode="p" d="M848 478 Q848 101 462 101 Q367 101 262 150 L289 260 Q388 223 478 223 Q616 223 675 299 Q722 360 722 480 Q722 608 643 653 Q584 688 441 688 Q387 688 299 657 Q212 628 170 598 Q170 537 167 434 Q164 330 164 283 Q164 173 181 9 L55 9 Q41 186 41 456 Q41 611 84 759 Q99 810 143 810 Q175 810 221 753 Q255 779 346 795 Q426 810 492 810 Q656 810 750 726 Q848 638 848 478 Z" /><glyph glyph-name="Q" unicode="q" d="M897 110 L827 15 Q800 29 701 86 Q590 -2 447 -2 Q265 -2 152 111 Q38 224 38 406 Q38 584 152 697 Q265 810 437 810 Q613 810 726 697 Q838 584 838 412 Q838 297 783 184 Q831 153 897 110 ZM718 413 Q718 531 640 612 Q563 692 453 692 Q334 692 252 621 Q160 541 160 404 Q160 269 249 191 Q328 121 443 121 Q494 121 589 153 L460 229 Q437 244 437 278 Q437 300 456 321 Q474 339 495 339 Q521 339 677 249 Q718 338 718 413 ZM120 953 L167 946 Q283 873 358 799 Q216 638 109 651 Q82 699 70 907 Q97 955 120 953 ZM798 921 Q821 922 846 872 Q820 665 790 618 Q682 612 550 782 Q631 852 750 918 L798 921 Z" /><glyph glyph-name="R" unicode="r" d="M851 488 Q851 415 823 353 Q794 294 728 227 Q804 138 838 62 L729 9 Q698 69 625 185 Q548 167 479 167 Q365 167 259 221 Q270 261 296 338 Q397 290 476 290 Q728 290 728 488 Q728 683 518 683 Q325 683 182 622 Q158 522 158 419 Q158 247 185 3 L61 3 Q38 186 38 383 Q38 501 48 579 Q55 641 80 752 Q92 805 137 805 Q163 805 178 787 Q186 777 202 745 Q315 805 522 805 Q676 805 763 723 Q851 640 851 488 Z" /><glyph glyph-name="S" unicode="s" d="M766 214 Q766 106 673 48 Q592 -4 471 -4 Q210 -4 26 159 Q45 193 87 259 Q196 181 271 151 Q357 119 468 119 Q525 119 578 142 Q644 170 644 219 Q644 302 493 335 Q353 364 214 392 Q63 442 63 568 Q63 689 172 753 Q263 807 402 807 Q529 807 617 786 Q759 750 759 667 Q759 645 739 628 Q720 611 691 611 Q686 611 653 626 Q634 637 614 646 Q523 684 394 684 Q333 684 263 656 Q184 623 184 580 Q184 517 336 487 Q568 442 614 422 Q766 359 766 214 Z" /><glyph glyph-name="T" unicode="t" d="M910 716 Q910 693 892 675 Q874 659 847 659 Q849 659 726 668 Q605 680 509 680 L505 323 Q505 177 521 11 L395 11 Q382 165 382 317 Q382 425 384 674 Q206 674 72 659 L72 780 Q215 800 391 800 Q588 800 616 799 Q748 797 848 782 Q910 773 910 716 ZM148 295 Q158 295 178 266 Q178 226 138 226 Q109 233 109 266 Q118 295 148 295 ZM39 244 L61 244 Q71 244 85 220 Q85 189 61 180 L39 180 Q15 189 15 220 Q15 229 39 244 ZM231 262 L261 262 Q268 262 278 245 L278 216 Q278 208 261 199 L238 199 Q228 199 214 222 L214 245 Q214 253 231 262 ZM144 187 Q243 171 243 113 L243 90 Q243 44 213 32 L190 32 Q153 67 133 67 Q94 60 70 60 Q53 90 53 101 Q53 169 144 187 ZM306 183 Q340 170 340 143 Q332 115 300 115 Q273 126 271 137 L271 143 Q271 183 306 183 ZM736 530 Q744 530 765 502 Q765 462 725 462 Q696 469 696 502 Q705 530 736 530 ZM626 479 L648 479 Q657 479 672 456 Q672 425 648 416 L626 416 Q602 425 602 456 Q602 465 626 479 ZM819 498 L848 498 Q855 498 865 480 L865 452 Q865 443 848 434 L824 434 Q815 434 802 458 L802 480 Q802 488 819 498 ZM732 423 Q829 407 829 348 L829 326 Q829 280 801 267 L778 267 Q739 302 720 302 Q681 296 656 296 Q640 326 640 337 Q640 404 732 423 ZM893 419 Q928 406 928 379 Q919 350 888 350 Q860 361 858 373 L858 379 Q858 419 893 419 Z" /><glyph glyph-name="U" unicode="u" d="M826 365 Q826 161 731 80 Q645 7 439 7 Q196 7 106 108 Q30 197 30 434 Q30 612 93 765 Q113 818 148 818 Q215 818 215 757 Q215 752 185 662 Q156 568 156 470 Q156 318 165 267 Q181 190 241 160 Q301 129 442 129 Q612 129 664 198 Q703 251 703 414 Q703 524 673 647 Q665 674 656 703 Q645 748 645 757 Q645 784 662 801 Q681 818 709 818 Q745 818 769 772 Q826 648 826 365 Z" /><glyph glyph-name="V" unicode="v" d="M878 746 Q878 675 808 476 Q746 303 702 217 Q591 1 462 1 Q379 1 279 123 Q109 328 43 629 Q25 707 25 748 Q25 811 84 811 Q138 811 145 769 Q172 622 199 535 Q240 404 316 278 Q409 127 474 127 Q512 127 552 194 Q560 211 600 295 Q707 523 763 778 Q770 812 818 812 Q842 812 859 794 Q878 773 878 746 Z" /><glyph glyph-name="W" unicode="w" d="M901 294 Q901 174 844 91 Q781 -1 675 -1 Q607 -1 568 18 Q517 41 479 106 Q429 -1 283 -1 Q156 -1 91 113 Q35 208 35 354 Q35 524 122 746 Q146 810 183 810 Q211 810 231 793 Q252 776 252 754 Q252 740 233 686 Q159 476 159 354 Q159 284 184 213 Q220 122 283 122 Q332 122 374 152 Q422 184 422 232 Q422 295 481 295 Q504 295 524 278 Q545 259 545 245 Q545 194 582 159 Q617 122 673 122 Q726 122 756 189 Q781 243 781 306 Q781 391 733 504 Q689 612 627 691 Q614 706 614 739 Q614 757 636 774 Q655 791 680 791 Q712 791 761 731 Q811 665 856 527 Q901 390 901 294 Z" /><glyph glyph-name="X" unicode="x" d="M867 750 Q867 718 853 706 Q750 616 534 408 L858 88 L769 12 L441 323 L137 13 L35 83 L344 400 Q251 487 73 644 Q35 674 35 693 Q35 767 95 767 Q127 767 179 717 Q254 644 434 486 Q485 543 532 588 Q644 698 707 746 Q754 784 755 785 Q787 808 811 808 Q829 808 849 788 Q867 770 867 750 Z" /><glyph glyph-name="Y" unicode="y" d="M867 744 Q867 550 785 423 Q686 269 478 234 L498 14 L371 14 L353 243 Q203 273 112 417 Q30 547 30 720 Q30 815 94 815 Q120 815 136 799 Q154 782 154 755 Q154 598 200 501 Q265 360 419 360 Q595 360 678 483 Q746 586 746 758 Q746 782 763 799 Q778 815 804 815 Q867 815 867 744 Z" /><glyph glyph-name="Z" unicode="z" d="M809 109 Q809 93 793 75 Q764 42 634 20 Q524 1 435 1 Q308 1 200 36 Q47 84 47 184 Q47 293 198 398 Q282 458 476 548 Q628 616 628 639 Q628 690 452 690 Q252 690 47 651 Q39 696 26 767 Q91 790 221 801 Q338 813 447 813 Q578 813 667 786 Q804 744 804 646 Q804 575 644 487 Q495 416 346 342 Q186 260 186 208 Q186 180 301 151 Q404 125 464 125 Q553 125 656 153 Q749 177 743 177 Q809 177 809 109 Z" /><glyph glyph-name="bracketleft" unicode="[" d="M409 -37 Q409 -116 266 -116 Q171 -116 146 -65 Q130 -34 130 84 L130 746 Q130 856 152 895 Q179 945 266 945 Q409 945 409 863 Q409 827 392 815 Q375 804 324 804 Q316 804 299 807 Q281 810 273 810 Q253 810 253 756 L253 74 Q253 20 273 20 Q280 20 298 24 Q315 27 324 27 Q370 27 390 12 Q409 0 409 -37 Z" /><glyph glyph-name="backslash" unicode="\" d="M539 86 L450 -1 L73 680 Q42 735 42 748 Q42 772 62 791 Q81 810 106 810 Q138 810 148 791 L539 86 Z" /><glyph glyph-name="bracketright" unicode="]" d="M408 55 Q408 -62 392 -93 Q367 -144 271 -144 Q128 -144 128 -65 Q128 -29 147 -16 Q167 -2 213 -2 Q223 -2 240 -5 Q257 -8 265 -8 Q285 -8 285 45 L285 727 Q285 781 265 781 Q256 781 238 778 Q222 775 213 775 Q163 775 145 787 Q128 799 128 835 Q128 918 271 918 Q358 918 387 866 Q408 828 408 718 L408 55 Z" /><glyph glyph-name="asciicircum" unicode="^" d="M481 761 Q481 711 440 711 Q425 711 380 746 Q334 779 312 779 Q289 779 241 746 Q193 714 173 714 Q132 714 132 765 Q132 793 199 849 Q264 904 309 904 Q353 904 418 845 Q481 790 481 761 Z" /><glyph glyph-name="underscore" unicode="_" d="M1075 -151 L0 -151 L0 -44 L1075 -44 L1075 -151 ZM508 635 Q542 635 567 441 Q601 403 601 366 L601 323 Q601 172 341 122 Q210 122 164 256 Q164 301 88 432 L88 450 Q91 466 105 466 L122 466 Q172 466 248 441 Q248 475 382 509 Q446 635 508 635 ZM409 397 L409 338 Q409 326 460 290 L517 290 Q531 290 567 338 L567 397 Q542 446 488 446 Q435 446 409 397 ZM651 349 L668 323 L668 273 L659 215 Q717 180 761 180 L802 180 Q928 180 928 282 L945 282 Q962 279 962 265 L962 256 Q962 183 777 105 Q726 105 726 80 Q802 68 802 46 Q802 -4 534 -22 Q350 -22 231 88 L248 113 Q332 105 374 105 L398 105 Q557 105 635 340 L651 349 ZM231 259 Q239 180 309 180 L338 180 Q397 216 397 268 Q365 346 309 346 Q247 346 231 259 ZM329 250 Q329 238 319.5 231 Q310 224 298 224 Q288 224 279 232.5 Q270 241 270 252 Q270 262 280.5 271.5 Q291 281 302 281 Q313 281 321 270.5 Q329 260 329 250 ZM526 356 Q526 344 517 337.5 Q508 331 496 331 Q485 331 477 339 Q469 347 469 358 Q469 369 478.5 378 Q488 387 501 387 Q511 387 518.5 377 Q526 367 526 356 Z" /><glyph glyph-name="grave" unicode="`" d="M395 774 L339 724 L252 794 Q208 830 208 868 Q208 887 224 900 Q240 913 261 913 Q290 913 317 874 L395 774 Z" /><glyph glyph-name="a" unicode="a" d="M851 34 L736 1 L691 100 Q606 41 522 19 Q451 -1 351 -1 Q230 -1 151 75 Q72 151 72 272 Q72 435 188 528 Q296 615 465 615 Q579 615 653 589 Q672 582 685 565 Q698 549 698 531 Q698 505 680 483 Q660 463 636 463 Q632 463 570 477 Q505 492 460 492 Q345 492 274 437 Q196 377 196 264 Q196 125 361 125 Q486 125 566 166 Q684 227 684 371 Q684 386 699 402 Q718 423 742 423 Q807 423 807 361 Q807 339 807 296 Q806 252 806 217 Q806 159 851 34 ZM81 708 L126 706 Q240 648 317 586 Q199 423 98 426 Q69 468 38 660 Q59 708 81 708 ZM587 801 Q607 810 645 775 Q693 585 682 535 Q591 493 418 596 Q465 684 547 782 L587 801 Z" /><glyph glyph-name="b" unicode="b" d="M757 305 Q757 168 682 85 Q608 -1 475 -1 Q364 -1 259 55 Q270 93 296 170 Q397 121 474 121 Q556 121 597 180 Q633 228 633 301 Q633 399 583 443 Q536 484 441 484 Q361 484 294 451 Q236 424 167 361 Q167 193 177 12 L51 12 Q42 106 42 278 Q42 390 54 536 Q69 683 87 770 Q94 810 142 810 Q171 810 189 793 Q208 777 208 750 Q208 746 195 675 Q182 600 177 516 Q290 606 452 606 Q596 606 676 526 Q757 446 757 305 Z" /><glyph glyph-name="c" unicode="c" d="M770 166 Q770 128 730 99 Q597 -1 444 -1 Q303 -1 206 78 Q101 162 101 297 Q101 444 202 531 Q298 615 449 615 Q528 615 603 593 Q691 565 728 515 Q733 505 733 484 Q733 464 713 445 Q693 427 672 427 Q656 427 626 443 Q586 465 560 473 Q511 488 449 488 Q357 488 298 450 Q224 401 224 307 Q224 222 290 170 Q348 123 435 123 Q513 123 568 150 Q591 160 645 197 Q681 223 711 223 Q731 223 751 204 Q770 186 770 166 ZM606 809 Q627 816 663 779 Q699 588 686 538 Q592 501 425 614 Q476 699 564 792 L606 809 ZM61 671 L106 676 Q227 635 313 585 Q219 406 119 394 Q84 431 26 618 Q40 668 61 671 Z" /><glyph glyph-name="d" unicode="d" d="M768 349 Q768 111 758 16 L633 16 Q637 71 645 184 Q651 298 640 393 Q591 437 518 463 Q443 489 372 489 Q280 489 221 443 Q155 390 155 295 Q155 212 214 166 Q266 126 345 126 Q388 126 431 152 Q474 177 497 177 Q521 177 537 158 Q553 138 553 110 Q553 59 474 28 Q412 4 348 4 Q212 4 124 82 Q32 164 32 295 Q32 442 130 528 Q223 611 379 611 Q524 611 637 524 L624 701 Q623 712 622 735 Q621 754 621 757 Q621 815 684 815 Q737 815 742 760 Q768 490 768 349 Z" /><glyph glyph-name="e" unicode="e" d="M762 340 Q762 312 751 299 Q740 288 713 281 Q668 269 560 265 Q497 264 393 261 Q316 256 181 256 Q202 203 265 169 Q334 129 431 129 Q467 129 520 127 Q569 126 592 126 L583 3 Q315 3 212 45 Q58 110 58 305 Q58 446 161 535 Q261 620 407 620 Q541 620 644 551 Q762 471 762 340 ZM650 368 Q540 497 413 497 Q338 497 279 460 Q211 419 186 345 Q239 347 327 353 Q401 357 421 357 Q476 357 650 368 ZM68 720 L113 719 Q226 660 304 598 Q185 435 85 438 Q55 480 25 673 Q46 721 68 720 ZM654 773 Q676 778 707 736 Q717 541 696 494 Q598 470 449 605 Q512 683 611 763 L654 773 Z" /><glyph glyph-name="f" unicode="f" d="M660 440 Q659 415 642 397 Q624 381 596 383 L367 395 L367 3 L239 3 L239 404 L25 415 L25 538 L239 526 Q242 652 292 724 Q346 802 449 802 Q497 802 537 786 Q591 766 591 725 Q591 698 571 678 Q554 658 526 658 Q512 658 482 668 Q456 680 445 680 Q403 680 383 624 Q366 583 366 518 L601 506 Q632 503 646 485 Q662 467 660 440 Z" /><glyph glyph-name="g" unicode="g" d="M775 132 Q775 1 743 -56 Q699 -139 578 -139 Q502 -139 443 -128 L443 -11 Q480 -16 555 -16 Q607 -16 632 33 Q649 70 649 122 Q649 207 625 461 Q594 451 579 451 Q561 451 547 459 Q475 503 384 503 Q295 503 224 454 Q151 402 151 324 Q151 259 204 220 Q256 181 339 181 Q421 181 471 219 Q487 232 508 232 Q532 232 550 214 Q567 198 567 173 Q567 110 457 73 Q414 57 339 57 Q210 57 121 128 Q28 203 28 324 Q28 464 147 551 Q253 626 384 626 Q490 626 611 565 Q633 620 684 620 Q734 620 740 562 Q751 456 761 349 Q775 198 775 132 Z" /><glyph glyph-name="h" unicode="h" d="M793 341 Q793 134 778 14 L656 14 Q670 132 670 341 Q670 395 626 438 Q572 488 483 488 Q341 488 189 378 Q166 359 166 324 Q166 201 187 14 L62 14 Q38 239 38 347 Q38 613 59 762 Q66 815 125 815 Q150 815 165 799 Q182 780 182 756 Q182 758 176 677 Q171 588 169 511 Q351 611 483 611 Q623 611 711 526 Q793 447 793 341 ZM412 285 Q422 285 444 253 Q444 209 400 209 Q368 217 368 253 Q377 285 412 285 ZM290 228 L314 228 Q325 228 340 202 Q340 168 314 158 L290 158 Q263 168 263 202 Q263 212 290 228 ZM504 249 L537 249 Q545 249 555 229 L555 198 Q555 188 537 178 L510 178 Q500 178 484 204 L484 229 Q484 238 504 249 ZM408 166 Q516 148 516 82 L516 57 Q516 7 483 -7 L459 -7 Q416 31 394 31 Q350 25 324 25 Q305 57 305 70 Q305 144 408 166 ZM587 161 Q625 146 625 117 Q614 85 580 85 Q550 97 548 110 L548 117 Q548 161 587 161 ZM684 955 Q693 955 717 924 Q717 879 672 879 Q639 888 639 924 Q648 955 684 955 ZM561 898 L587 898 Q596 898 612 872 Q612 838 587 828 L561 828 Q536 838 536 872 Q536 883 561 898 ZM776 919 L808 919 Q816 919 827 899 L827 868 Q827 858 808 849 L782 849 Q772 849 757 874 L757 899 Q757 908 776 919 ZM679 836 Q787 818 787 753 L787 727 Q787 678 756 664 L730 664 Q687 701 667 701 Q623 695 596 695 Q578 727 578 740 Q578 815 679 836 ZM858 831 Q896 816 896 787 Q887 756 852 756 Q822 768 819 780 L819 787 Q819 831 858 831 Z" /><glyph glyph-name="i" unicode="i" d="M261 534 Q252 466 252 250 Q252 239 249 125 Q248 36 250 -2 L115 -2 Q112 36 113 122 Q116 246 116 250 Q116 482 124 550 Q126 570 146 587 Q166 602 195 602 Q270 602 261 534 ZM204 939 Q213 939 237 907 Q237 863 191 863 Q160 871 160 907 Q168 939 204 939 ZM81 883 L106 883 Q117 883 132 856 Q132 822 106 812 L81 812 Q55 822 55 856 Q55 866 81 883 ZM296 903 L329 903 Q336 903 347 884 L347 852 Q347 843 329 833 L302 833 Q292 833 276 858 L276 884 Q276 893 296 903 ZM200 820 Q308 803 308 736 L308 712 Q308 662 275 647 L250 647 Q207 685 186 685 Q142 679 116 679 Q97 712 97 725 Q97 799 200 820 ZM378 815 Q417 801 417 771 Q407 739 372 739 Q342 752 339 765 L339 771 Q339 815 378 815 Z" /><glyph glyph-name="j" unicode="j" d="M573 205 Q573 -132 325 -132 Q176 -132 29 -46 L67 66 Q243 -10 321 -10 Q398 -10 429 63 Q446 110 446 205 Q446 285 424 378 Q396 480 355 541 Q347 557 347 575 Q347 598 366 617 Q386 635 411 635 Q443 635 465 605 Q513 535 543 415 Q573 303 573 205 ZM393 985 Q402 985 426 954 Q426 909 381 909 Q349 918 349 954 Q357 985 393 985 ZM270 929 L296 929 Q306 929 322 903 Q322 868 296 858 L270 858 Q245 868 245 903 Q245 913 270 929 ZM485 949 L518 949 Q525 949 537 930 L537 898 Q537 889 518 879 L492 879 Q481 879 466 905 L466 930 Q466 939 485 949 ZM389 866 Q498 849 498 783 L498 758 Q498 708 465 694 L439 694 Q396 732 376 732 Q332 725 305 725 Q287 758 287 771 Q287 846 389 866 ZM567 862 Q605 847 605 817 Q596 786 561 786 Q531 798 528 811 L528 817 Q528 862 567 862 Z" /><glyph glyph-name="k" unicode="k" d="M743 66 Q743 39 726 19 Q710 -1 683 -1 Q675 -1 665 2 Q313 102 172 276 Q173 176 180 11 L57 11 Q46 123 46 342 Q46 590 66 755 Q71 810 133 810 Q158 810 175 791 Q191 773 188 743 Q172 599 170 376 Q269 461 385 516 Q477 559 625 603 Q635 606 647 606 Q672 606 690 586 Q707 566 707 539 Q707 497 660 484 Q486 433 367 372 Q339 357 333 352 Q314 337 314 316 Q314 287 358 259 Q486 181 698 121 Q743 108 743 66 Z" /><glyph glyph-name="l" unicode="l" d="M243 752 Q243 649 229 438 Q216 227 216 122 Q216 46 217 9 L85 9 Q83 49 83 152 Q83 401 84 457 Q88 630 109 757 Q118 810 181 810 Q243 810 243 752 Z" /><glyph glyph-name="m" unicode="m" d="M859 380 Q859 228 835 9 L715 9 Q736 232 736 380 Q736 489 641 489 Q570 489 523 422 Q504 396 493 388 Q477 375 450 375 Q417 375 387 422 Q341 489 284 489 Q234 489 155 442 Q152 351 152 281 Q152 133 171 9 L51 9 Q30 127 30 281 Q30 504 39 564 Q47 615 94 615 Q128 615 157 585 Q231 615 284 615 Q387 615 458 526 Q535 615 641 615 Q745 615 805 544 Q859 479 859 380 Z" /><glyph glyph-name="n" unicode="n" d="M794 338 Q794 131 778 9 L656 9 Q670 129 670 338 Q670 394 627 438 Q573 489 483 489 Q395 489 298 442 Q230 401 161 360 Q166 212 187 9 L63 9 Q37 267 37 433 Q37 503 43 558 Q45 582 60 600 Q75 615 97 615 Q165 615 165 510 Q350 615 483 615 Q624 615 712 528 Q794 447 794 338 ZM92 742 L135 731 Q234 651 298 574 Q148 439 50 463 Q30 510 40 706 Q71 746 92 742 ZM659 768 Q681 773 712 731 Q722 536 701 489 Q603 465 454 600 Q517 678 616 758 L659 768 Z" /><glyph glyph-name="o" unicode="o" d="M759 305 Q759 161 653 78 Q554 -1 389 -1 Q240 -1 140 71 Q27 154 27 302 Q27 437 125 524 Q226 615 397 615 Q565 615 665 527 Q759 442 759 305 ZM635 305 Q635 385 581 434 Q519 489 397 489 Q272 489 208 431 Q151 380 151 302 Q151 220 214 172 Q278 125 389 125 Q512 125 574 175 Q635 223 635 305 ZM347 992 L358 993 Q374 995 411 894 Q463 871 519 829 Q613 840 640 802 L641 790 Q642 780 551 697 Q553 684 522 636 Q540 650 550 651 Q565 629 583 631 Q634 648 645 649 Q695 655 725 617 L727 605 L709 603 Q675 629 659 627 Q607 616 609 598 Q625 600 645 544 L650 497 Q651 485 635 483 Q511 575 413 564 L390 561 Q367 558 293 534 L282 532 Q270 530 268 542 L267 554 Q263 585 296 610 L307 611 Q403 587 445 592 L485 602 L484 607 L478 606 Q449 598 444 597 Q306 582 228 737 L224 778 Q219 818 288 892 Q339 991 347 992 ZM238 766 Q260 708 310 714 Q353 718 356 779 Q350 833 283 831 Q233 803 238 766 ZM385 712 L385 705 Q391 650 446 656 L454 657 Q508 663 502 718 L501 725 Q495 779 439 773 L432 772 Q378 767 385 712 ZM234 685 Q242 686 274 643 Q276 625 230 614 Q207 620 206 629 L204 647 Q203 655 234 685 ZM444 710 Q445 701 439.5 696 Q434 691 426 690 Q419 689 413.5 694 Q408 699 407 706 Q406 713 411.5 719.5 Q417 726 425 727 Q432 728 437.5 722.5 Q443 717 444 710 ZM296 784 Q297 776 291.5 771 Q286 766 278 765 Q270 764 264.5 769 Q259 774 258 781 Q257 788 262.5 794.5 Q268 801 276 802 Q284 803 289.5 797 Q295 791 296 784 Z" /><glyph glyph-name="p" unicode="p" d="M784 289 Q784 161 672 78 Q570 4 444 4 Q353 4 287 41 L325 158 Q391 126 442 126 Q526 126 595 175 Q662 222 662 289 Q662 393 601 439 Q542 487 415 487 Q307 487 165 395 Q158 268 158 175 Q158 -8 174 -153 L51 -153 Q35 -9 35 175 Q35 466 58 561 Q72 610 116 610 Q157 610 185 554 Q312 610 415 610 Q585 610 680 535 Q784 454 784 289 Z" /><glyph glyph-name="q" unicode="q" d="M758 559 Q758 499 750 377 Q741 254 741 193 Q741 -4 751 -145 L627 -145 Q617 -10 617 193 Q617 269 625 416 Q535 492 400 492 Q273 492 216 446 Q155 400 155 297 Q155 229 222 182 Q291 133 375 133 Q388 133 421 139 Q454 145 467 145 Q513 145 513 79 Q513 31 464 18 Q440 11 375 11 Q249 11 145 85 Q31 169 31 297 Q31 462 136 542 Q230 615 400 615 Q518 615 630 562 Q655 617 699 617 Q722 617 740 601 Q758 584 758 559 Z" /><glyph glyph-name="r" unicode="r" d="M566 552 Q566 505 528 492 Q436 462 370 431 Q300 397 175 288 L186 6 L60 6 L34 547 Q33 577 51 595 Q69 612 94 612 Q158 612 161 554 L167 449 Q391 612 501 612 Q524 612 545 595 Q566 575 566 552 ZM403 303 Q414 303 437 269 Q437 223 391 223 Q356 231 356 269 Q367 303 403 303 ZM274 244 L301 244 Q311 244 329 216 Q329 180 301 169 L274 169 Q247 180 247 216 Q247 227 274 244 ZM500 265 L535 265 Q543 265 554 245 L554 211 Q554 202 535 190 L507 190 Q497 190 479 218 L479 245 Q479 254 500 265 ZM398 178 Q513 160 513 90 L513 65 Q513 11 478 -3 L453 -3 Q408 37 385 37 Q339 30 310 30 Q291 65 291 78 Q291 156 398 178 ZM587 173 Q627 158 627 127 Q616 93 580 93 Q549 106 546 120 L546 127 Q546 173 587 173 Z" /><glyph glyph-name="s" unicode="s" d="M624 165 Q624 77 540 34 Q471 -1 362 -1 Q283 -1 176 58 Q74 112 20 180 L99 254 Q144 210 217 171 Q302 125 362 125 Q497 125 497 170 Q497 209 395 234 Q242 272 208 289 Q106 335 106 426 Q106 510 199 565 Q280 614 378 614 Q514 614 601 527 Q622 508 622 483 Q622 459 601 439 Q583 420 557 420 Q534 420 512 439 Q460 488 378 488 Q232 488 232 423 Q232 386 334 360 Q486 322 521 305 Q624 256 624 165 Z" /><glyph glyph-name="t" unicode="t" d="M716 505 Q716 477 697 459 Q682 439 652 439 Q645 439 636 441 Q574 459 348 468 Q314 344 314 228 Q314 183 347 155 Q379 126 433 126 Q487 126 531 144 Q564 157 615 194 L681 87 Q553 1 433 1 Q332 1 261 65 Q189 128 189 228 Q189 342 219 471 L27 476 L27 597 Q90 597 261 594 Q282 644 328 738 Q345 774 379 774 Q406 774 426 757 Q446 740 446 715 Q446 699 439 685 Q428 664 392 589 Q602 579 668 561 Q716 550 716 505 Z" /><glyph glyph-name="u" unicode="u" d="M812 17 L692 2 Q686 29 672 184 Q593 81 514 39 Q440 -1 334 -1 Q189 -1 104 86 Q25 167 25 287 Q25 378 39 427 Q60 509 131 591 Q152 615 179 615 Q203 615 222 595 Q242 577 242 552 Q242 530 223 509 Q175 453 161 406 Q148 365 148 287 Q148 218 191 174 Q241 123 334 123 Q480 123 553 206 Q635 298 689 560 Q694 583 716 600 Q735 615 759 615 Q812 615 812 548 Q812 501 803 403 Q795 307 795 258 Q795 95 812 17 ZM477 617 Q506 617 514 591 Q514 560 487 554 Q451 554 451 591 Q470 617 477 617 ZM579 570 Q600 557 600 549 Q600 520 579 512 L558 512 Q537 520 537 549 Q550 570 558 570 L579 570 ZM401 587 Q417 579 417 570 L417 550 Q404 528 395 528 L374 528 Q358 537 358 545 L358 570 Q367 587 374 587 L401 587 ZM481 518 Q565 501 565 439 Q565 428 550 401 Q527 401 492 407 Q474 407 438 376 L418 376 Q391 387 391 428 L391 450 Q391 504 481 518 ZM333 514 Q366 514 366 477 L366 472 Q362 462 338 452 Q308 452 301 477 Q301 503 333 514 ZM231 956 Q260 956 268 930 Q268 899 242 893 Q205 893 205 930 Q224 956 231 956 ZM333 909 Q354 896 354 888 Q354 859 333 851 L312 851 Q291 859 291 888 Q304 909 312 909 L333 909 ZM156 926 Q172 918 172 909 L172 889 Q159 867 151 867 L129 867 Q113 876 113 884 L113 909 Q122 926 129 926 L156 926 ZM236 857 Q321 840 321 778 Q321 768 304 740 Q282 740 246 746 Q228 746 194 715 L173 715 Q145 726 145 768 L145 788 Q145 843 236 857 ZM87 853 Q120 853 120 816 L120 811 Q117 801 92 791 Q63 791 55 816 Q55 842 87 853 Z" /><glyph glyph-name="v" unicode="v" d="M786 545 Q786 447 703 295 Q627 151 543 75 Q459 -1 375 -1 Q299 -1 217 67 Q136 134 78 289 Q25 432 25 542 Q25 572 41 593 Q56 614 84 614 Q110 614 129 599 Q145 582 145 562 Q145 446 214 295 Q289 125 376 125 Q434 125 506 215 Q567 292 615 402 Q662 508 665 563 Q665 581 684 598 Q702 614 728 614 Q753 614 770 595 Q786 574 786 545 Z" /><glyph glyph-name="w" unicode="w" d="M892 282 Q892 151 823 75 Q757 -3 633 -3 Q522 -3 447 75 Q373 -3 271 -3 Q157 -3 94 69 Q33 138 33 259 Q33 360 63 467 Q104 612 179 612 Q201 612 220 595 Q239 574 239 550 Q239 532 226 512 Q156 387 156 259 Q156 120 266 120 Q351 120 402 191 Q423 220 455 220 Q487 220 507 188 Q547 121 648 121 Q769 121 769 290 Q769 352 737 412 Q705 464 674 516 Q659 539 659 555 Q659 574 678 595 Q695 612 713 612 Q783 612 841 492 Q892 384 892 282 Z" /><glyph glyph-name="x" unicode="x" d="M742 100 L649 15 L374 267 L109 14 L16 98 L268 350 L78 502 Q53 521 53 551 Q53 615 117 615 Q134 615 174 584 L364 437 L564 582 Q605 612 639 612 Q653 612 675 590 Q695 567 695 548 Q695 523 640 484 L461 358 L742 100 Z" /><glyph glyph-name="y" unicode="y" d="M808 570 Q808 553 748 431 Q599 127 351 -128 L258 -53 L369 80 Q275 131 151 303 Q23 481 23 573 Q23 596 43 613 Q60 630 86 630 Q129 630 143 589 Q236 328 442 177 Q564 312 680 583 Q698 630 742 630 Q768 630 786 610 Q808 593 808 570 ZM431 849 Q440 849 463 818 Q463 775 420 775 Q388 783 388 818 Q397 849 431 849 ZM312 795 L337 795 Q347 795 362 769 Q362 736 337 726 L312 726 Q288 736 288 769 Q288 779 312 795 ZM520 814 L552 814 Q559 814 569 795 L569 765 Q569 756 552 746 L526 746 Q516 746 502 771 L502 795 Q502 804 520 814 ZM427 734 Q532 717 532 653 L532 629 Q532 581 501 567 L476 567 Q435 604 414 604 Q372 597 346 597 Q328 629 328 641 Q328 714 427 734 ZM600 729 Q637 715 637 686 Q628 656 594 656 Q565 668 562 680 L562 686 Q562 729 600 729 Z" /><glyph glyph-name="z" unicode="z" d="M734 113 Q734 80 710 65 Q657 31 550 12 Q460 -4 370 -4 Q60 -4 60 122 Q60 195 178 268 Q233 302 399 377 Q517 430 517 454 Q517 480 472 485 Q470 485 409 485 Q260 485 39 455 L23 577 Q189 612 409 612 Q724 612 724 478 Q724 404 605 337 Q572 319 384 238 Q264 186 264 152 Q264 127 300 123 Q303 122 351 122 Q527 122 640 169 Q649 173 669 173 Q698 173 717 156 Q734 136 734 113 Z" /><glyph glyph-name="braceleft" unicode="{" d="M400 -94 Q400 -118 383 -133 Q367 -150 345 -150 Q283 -150 242 -83 Q209 -25 212 40 L222 254 Q223 290 200 324 Q177 357 177 381 Q177 406 200 437 Q225 471 222 508 L212 723 Q209 787 242 846 Q279 912 335 912 Q361 912 379 896 Q400 878 400 846 Q400 828 387 818 Q374 809 361 799 Q326 775 327 722 L337 480 Q339 416 300 380 Q339 345 337 282 L327 41 Q326 -13 366 -40 Q400 -63 400 -94 Z" /><glyph glyph-name="bar" unicode="|" d="M210 -146 L103 -146 L103 929 L210 929 L210 -146 Z" /><glyph glyph-name="braceright" unicode="}" d="M379 386 Q379 362 355 329 Q333 295 334 259 L345 45 Q348 -20 313 -78 Q273 -144 211 -144 Q189 -144 173 -128 Q157 -113 157 -89 Q157 -59 195 -32 Q230 -7 228 46 L220 287 Q217 350 256 385 Q217 421 220 485 L228 726 Q230 780 190 807 Q169 821 168 822 Q157 833 157 850 Q157 882 178 900 Q195 916 221 916 Q278 916 314 850 Q348 791 345 727 L334 513 Q332 476 355 442 Q379 411 379 386 Z" /><glyph glyph-name="asciitilde" unicode="~" d="M979 255 Q979 239 959 214 Q873 103 759 103 Q684 103 551 157 Q418 211 348 211 Q268 211 209 101 L97 166 Q185 349 358 349 Q428 349 556 298 Q683 244 753 244 Q800 244 849 295 Q886 330 908 330 Q979 330 979 255 ZM428 901 L442 901 Q496 864 542 818 L579 826 L671 826 Q781 871 837 871 L844 871 Q854 871 867 848 Q852 759 821 720 L828 682 L828 628 Q828 498 609 462 Q396 497 396 628 Q396 660 404 713 Q389 807 389 818 Q404 901 428 901 ZM435 637 Q445 568 504 568 L522 568 Q591 568 591 646 Q569 716 513 716 Q435 705 435 637 ZM635 646 Q635 601 686 568 L722 568 Q791 568 791 638 Q780 716 713 716 Q656 716 635 646 ZM897 500 L935 500 Q950 498 950 485 L950 469 Q814 469 814 386 Q860 317 860 287 L860 281 Q860 265 844 265 L821 265 Q697 364 587 364 L563 364 Q454 348 442 348 L428 371 L428 379 Q428 444 511 454 Q591 439 616 439 Q641 439 716 462 Q770 424 782 416 Q815 500 897 500 ZM539 635 Q539 624 531 618 Q523 612 513 612 Q504 612 497 619.5 Q490 627 490 636 Q490 644 498.5 652 Q507 660 517 660 Q526 660 532.5 651.5 Q539 643 539 635 ZM736 638 Q736 628 728 622 Q720 616 711 616 Q701 616 694 623.5 Q687 631 687 640 Q687 648 695 656 Q703 664 714 664 Q723 664 729.5 655.5 Q736 647 736 638 Z" /><glyph glyph-name="yen" unicode="¥" d="M891 238 Q886 193 835 190 Q724 180 570 171 Q573 138 591 44 Q594 23 598 -14 Q594 -55 556 -56 Q515 -53 505 -18 Q495 16 476 167 Q271 154 207 156 Q150 157 150 203 Q150 255 224 255 Q324 255 465 260 Q456 331 452 396 Q269 384 206 383 Q165 385 146 405 Q132 416 132 439 Q132 460 151 471 Q162 480 264 482 Q326 484 387 487 L232 705 Q212 734 212 750 Q212 802 264 802 Q290 802 311 768 Q409 615 470 536 Q485 515 495 513 Q498 513 524 541 Q625 653 707 761 Q740 805 763 805 Q799 805 811 756 Q808 741 796 725 Q726 638 606 499 Q697 503 781 511 Q818 514 830 514 Q880 514 883 460 Q880 420 828 417 L541 400 Q550 314 558 267 Q687 272 774 280 Q839 287 838 287 Q889 287 891 238 Z" /><glyph glyph-name="periodcentered" unicode="·&#x2022;" d="M664 368 Q664 299 625 258 Q586 217 518 217 Q452 217 406 257 Q360 298 360 364 Q360 433 401 474 Q441 518 510 518 Q578 518 621 477 Q664 436 664 368 Z" /><glyph glyph-name="ellipsis" unicode="&#x2026;" d="M926 368 Q926 336 907 316 Q889 295 856 295 Q823 295 802 315 Q780 334 780 366 Q780 399 800 419 Q819 440 852 440 Q885 440 905 420 Q926 401 926 368 ZM585 368 Q585 335 565 315 Q547 295 515 295 Q483 295 461 315 Q439 334 439 366 Q439 400 459 419 Q478 440 512 440 Q544 440 564 419 Q585 400 585 368 ZM245 368 Q245 336 226 316 Q208 295 175 295 Q142 295 121 315 Q99 334 99 366 Q99 440 169 440 Q203 440 223 420 Q245 401 245 368 Z" /></font>
</defs>
</svg>
