<?xml version="1.0" standalone="no"?>
<!DOCTYPE svg PUBLIC "-//W3C//DTD SVG 20010904//EN"
 "http://www.w3.org/TR/2001/REC-SVG-20010904/DTD/svg10.dtd">
<svg version="1.0" xmlns="http://www.w3.org/2000/svg"
 width="623.000000pt" height="623.000000pt" viewBox="0 0 623.000000 623.000000"
 preserveAspectRatio="xMidYMid meet">
<metadata>
Created by potrace 1.11, written by Peter Selinger 2001-2013
</metadata>
<g transform="translate(0.000000,623.000000) scale(0.100000,-0.100000)"
fill="#000000" stroke="none">
<path d="M2890 5808 c-149 -9 -277 -19 -335 -25 -27 -3 -65 -5 -82 -6 -18 -1
-33 -5 -33 -10 0 -4 -4 -6 -8 -3 -13 8 -108 -42 -150 -79 -12 -11 -25 -19 -27
-18 -10 5 -185 -165 -265 -257 -25 -28 -51 -57 -57 -65 -7 -7 -13 -19 -13 -25
0 -6 -4 -9 -9 -6 -5 3 -18 -9 -30 -27 -11 -17 -29 -43 -40 -57 -11 -14 -51
-70 -90 -125 -39 -55 -74 -105 -78 -110 -4 -6 -9 -16 -10 -22 -2 -7 -18 -36
-36 -65 -19 -29 -50 -83 -70 -120 -20 -36 -68 -119 -107 -184 -38 -65 -70
-119 -70 -120 0 -4 -97 -163 -135 -224 -16 -25 -30 -47 -31 -50 -1 -3 -5 -15
-9 -27 -4 -13 -11 -23 -15 -23 -4 0 -18 -20 -31 -45 -13 -25 -28 -45 -32 -45
-5 0 -5 -4 -2 -10 3 -5 2 -10 -3 -10 -5 0 -17 -18 -27 -40 -10 -22 -22 -40
-27 -40 -4 0 -8 -4 -8 -10 0 -9 -118 -206 -214 -357 -25 -39 -46 -76 -46 -82
0 -6 -4 -11 -10 -11 -5 0 -10 -5 -10 -12 0 -6 -10 -25 -23 -42 -13 -17 -27
-38 -30 -46 -4 -8 -16 -28 -27 -45 -11 -16 -27 -43 -36 -60 -9 -16 -33 -55
-53 -85 -20 -30 -43 -67 -50 -82 -8 -15 -23 -37 -33 -48 -10 -11 -16 -20 -13
-20 3 0 1 -6 -5 -12 -6 -7 -25 -35 -41 -63 -16 -27 -35 -59 -42 -69 -47 -74
-77 -126 -77 -134 0 -6 -6 -12 -12 -15 -7 -3 -24 -27 -38 -53 -13 -27 -27 -51
-30 -54 -3 -3 -10 -14 -17 -25 -50 -82 -138 -223 -148 -235 -20 -25 -5 -168
16 -154 5 3 9 1 9 -5 0 -19 76 -34 98 -18 7 6 12 6 12 -1 0 -10 30 -12 40 -2
3 3 32 27 65 54 33 28 137 127 231 220 94 94 184 181 200 193 35 26 135 123
126 123 -3 0 3 6 14 14 10 8 19 18 19 23 1 16 83 132 89 126 3 -4 6 1 6 10 0
22 44 61 91 83 22 9 39 21 39 26 0 5 4 7 8 4 14 -9 128 96 242 223 126 141
203 231 196 231 -2 0 8 12 22 28 38 39 106 123 111 136 2 6 7 13 10 16 6 4 74
92 116 148 6 7 18 22 28 33 9 10 17 23 17 28 0 4 10 19 23 33 12 14 28 34 35
44 7 10 50 70 95 133 45 62 87 120 92 130 6 9 12 18 15 21 3 3 16 22 30 42 14
21 29 38 33 38 5 0 5 5 2 10 -3 6 -2 10 2 10 5 0 17 15 28 33 20 34 30 47 58
78 9 10 17 21 17 24 0 3 16 27 35 52 34 44 36 45 30 18 -10 -48 -10 -49 -18
-62 -5 -7 -6 -13 -4 -13 3 0 1 -17 -4 -37 -16 -65 -19 -77 -24 -103 -8 -44
-13 -63 -40 -165 -15 -55 -27 -108 -27 -117 1 -10 -3 -18 -7 -18 -4 0 -8 -6
-9 -12 -2 -22 -23 -101 -29 -112 -4 -6 -8 -17 -9 -26 -3 -19 -7 -32 -28 -102
-10 -32 -18 -61 -18 -65 -1 -5 -7 -21 -14 -38 -7 -16 -13 -34 -13 -40 -1 -10
-28 -98 -38 -125 -4 -8 -5 -18 -5 -22 1 -4 -4 -25 -12 -45 -20 -51 -120 -367
-117 -371 0 -1 -5 -18 -13 -37 -9 -20 -15 -36 -15 -38 1 -6 -14 -63 -20 -72
-3 -5 -6 -15 -7 -21 -1 -5 -20 -70 -43 -142 -23 -73 -44 -140 -46 -150 -2 -9
-8 -29 -13 -43 -6 -15 -8 -30 -5 -33 4 -3 1 -6 -5 -6 -7 0 -12 -7 -12 -16 0
-9 -28 -28 -72 -49 -159 -72 -189 -85 -199 -85 -6 0 -23 -7 -37 -15 -38 -20
-153 -65 -169 -65 -7 0 -13 -4 -13 -10 0 -5 -7 -10 -16 -10 -8 0 -46 -13 -84
-29 -37 -16 -71 -27 -74 -24 -3 4 -6 1 -6 -5 0 -7 -3 -11 -7 -10 -8 3 -20 -1
-128 -43 -33 -13 -62 -24 -65 -25 -3 0 -14 -4 -25 -9 -11 -4 -54 -21 -95 -37
-41 -16 -82 -33 -90 -37 -9 -5 -30 -12 -48 -15 -17 -4 -34 -12 -37 -17 -4 -5
-13 -9 -20 -9 -8 0 -40 -12 -72 -27 -32 -14 -61 -27 -64 -27 -12 -2 -89 -76
-89 -86 0 -5 -4 -10 -9 -10 -4 0 -7 -32 -6 -70 2 -66 4 -72 36 -103 19 -17 45
-34 59 -36 47 -8 335 0 335 9 0 1 18 4 40 5 22 2 51 6 65 9 46 10 78 16 175
30 11 2 40 7 65 11 44 7 58 9 130 20 19 2 44 7 55 9 32 8 117 19 152 20 18 1
35 5 39 9 18 18 34 6 28 -20 -4 -16 -10 -30 -13 -33 -3 -3 -7 -14 -9 -25 -3
-23 -23 -85 -53 -170 -11 -33 -22 -67 -23 -75 -1 -8 -9 -26 -16 -40 -8 -14
-13 -31 -11 -38 1 -8 -2 -19 -8 -26 -6 -7 -13 -23 -15 -37 -3 -13 -5 -24 -6
-24 -1 0 -3 -7 -5 -15 -2 -8 -22 -67 -44 -130 -23 -63 -44 -126 -47 -140 -3
-13 -9 -29 -15 -36 -5 -6 -10 -23 -11 -38 -1 -14 -5 -26 -8 -26 -6 0 -10 -25
-13 -78 -1 -17 -5 -32 -9 -32 -4 0 -4 -11 1 -23 5 -13 5 -30 1 -37 -5 -9 -4
-20 2 -27 7 -8 7 -13 0 -13 -9 0 11 -73 27 -95 4 -5 7 -54 6 -109 0 -97 0 -99
31 -131 29 -31 36 -33 95 -34 l63 0 68 65 c37 36 68 68 70 72 3 8 30 41 71 84
15 17 27 33 27 37 0 3 21 28 45 55 25 27 45 54 45 59 0 6 3 8 6 4 4 -3 14 3
23 13 11 13 30 20 61 21 25 1 53 6 62 11 9 4 19 4 22 -1 10 -15 55 0 86 29 16
15 31 25 34 23 2 -3 7 5 11 16 3 12 14 21 22 21 9 0 14 2 11 5 -5 5 56 75 66
76 2 0 26 20 51 45 43 40 52 44 97 44 41 0 54 5 77 28 28 28 61 90 61 114 0 8
3 18 7 22 7 6 13 29 15 54 1 6 6 12 11 12 5 0 7 6 4 14 -3 7 -2 17 3 22 4 5
15 34 25 64 9 30 28 84 42 120 14 35 26 69 27 75 1 5 12 39 24 75 12 36 22 70
23 75 0 6 4 15 9 20 4 6 13 36 20 68 7 31 17 57 22 57 5 0 8 6 6 13 -3 20 12
57 25 58 7 0 93 3 192 5 99 3 204 6 233 7 28 1 52 -2 52 -7 0 -5 6 -3 13 3 8
6 16 8 20 5 3 -3 95 -7 205 -9 110 -1 204 -5 211 -9 6 -4 11 -2 11 4 0 6 5 8
12 4 23 -15 503 -24 586 -11 19 3 48 18 66 36 31 30 33 37 33 97 0 54 -4 68
-23 90 -13 14 -24 29 -24 33 0 15 51 22 108 15 45 -5 51 -8 36 -17 -51 -28
-61 -49 -61 -129 0 -43 3 -78 8 -78 5 0 9 -5 9 -11 0 -6 15 -25 33 -42 23 -24
41 -32 65 -31 18 1 44 -5 57 -12 14 -7 29 -13 33 -14 4 0 21 -4 37 -9 17 -6
59 -13 95 -16 36 -3 88 -8 115 -11 28 -3 87 -6 132 -7 81 -3 84 -2 112 28 24
24 30 40 31 80 3 81 1 91 -20 115 -22 25 -26 35 -10 25 5 -3 20 -8 32 -11 55
-12 64 -14 83 -19 11 -2 52 -12 90 -21 39 -8 78 -17 88 -20 9 -2 27 -6 40 -10
12 -3 33 -7 47 -10 14 -3 43 -10 65 -16 22 -5 47 -11 55 -13 8 -2 33 -8 55
-13 40 -11 62 -16 145 -33 25 -5 93 -11 151 -14 l105 -5 27 30 c23 25 27 39
27 89 0 51 -4 64 -25 85 -26 26 -127 96 -139 96 -4 0 -16 9 -28 20 -12 11 -28
20 -35 20 -7 0 -13 5 -13 10 0 6 -4 10 -9 10 -9 0 -109 58 -121 70 -5 5 -39
23 -155 84 -33 17 -62 34 -65 37 -8 9 -144 73 -152 71 -5 -1 -8 3 -8 9 0 5 -4
7 -10 4 -5 -3 -10 -1 -10 4 0 6 -3 10 -7 9 -8 -1 -29 6 -78 27 -16 8 -43 17
-60 21 -16 4 -34 9 -40 13 -11 6 -27 10 -70 15 -34 4 -76 14 -122 28 -26 7
-33 15 -33 34 0 49 -76 100 -178 119 -13 2 -32 7 -42 10 -37 12 -127 27 -172
29 -16 0 -28 4 -28 7 0 3 -6 6 -12 6 -57 3 -128 12 -137 17 -6 4 -11 2 -11 -4
0 -7 -6 -8 -19 -1 -10 6 -46 12 -80 13 -33 1 -61 5 -61 8 0 3 -92 5 -205 5
-113 0 -205 2 -205 5 0 3 26 19 57 35 174 91 503 292 503 308 0 6 3 7 6 4 4
-4 24 7 44 23 21 17 42 30 48 30 6 0 12 3 14 8 3 6 31 29 112 92 46 35 245
239 278 285 50 70 96 164 117 241 34 121 23 374 -20 479 -7 17 -13 32 -14 35
-11 32 -51 110 -75 145 -16 24 -30 46 -30 48 0 9 -55 71 -122 139 -38 38 -68
65 -68 62 0 -4 -8 0 -18 9 -20 19 -163 80 -170 73 -2 -3 -14 -1 -26 4 -41 15
-129 23 -266 22 -180 0 -292 -13 -430 -47 -11 -3 -28 -7 -37 -9 -75 -19 -86
-19 -80 -3 5 13 25 81 33 110 1 4 2 8 4 10 1 1 3 9 5 17 1 8 17 62 35 120 17
58 32 111 33 118 0 6 4 12 9 12 5 0 6 5 3 10 -4 6 -1 17 5 25 7 8 10 15 6 15
-3 0 -1 12 5 28 27 67 51 173 55 243 4 75 4 77 -28 108 -52 51 -87 63 -233 77
-27 2 -61 7 -75 10 -37 8 -480 10 -600 2z m925 -1676 c6 -4 17 -7 25 -9 24 -3
60 -52 60 -81 -1 -82 -110 -229 -270 -363 -35 -30 -70 -59 -76 -65 -6 -5 -65
-50 -130 -100 -66 -49 -120 -92 -122 -96 -2 -5 -8 -8 -13 -8 -6 0 -31 -16 -56
-35 -25 -19 -49 -35 -53 -35 -5 0 -1 21 7 48 9 26 16 55 16 65 1 9 5 17 9 17
4 0 7 3 6 8 -3 13 14 77 24 90 6 6 8 12 5 12 -4 0 1 19 9 43 15 40 20 57 29
102 3 11 14 45 25 75 11 30 20 63 20 72 0 10 4 18 8 18 4 0 8 8 9 18 3 36 15
87 23 96 5 5 6 14 4 21 -4 11 43 38 71 41 6 0 23 6 38 12 15 7 40 15 55 18 15
4 33 11 40 17 6 5 12 7 12 4 0 -4 17 0 38 7 20 7 47 12 60 11 12 -1 22 3 22 8
0 10 86 0 105 -11z"/>
</g>
</svg>
